Coordinates
version=1
nRows=6
nColumns=36
inDegrees=yes

Units are S.I. units (second, meters, Newtons, ...)
If the header above contains a line with 'inDegrees', this indicates whether rotational values are in degrees (yes) or radians (no).

endheader
time	pelvis_tilt	pelvis_list	pelvis_rotation	pelvis_tx	pelvis_ty	pelvis_tz	hip_flexion_r	hip_adduction_r	hip_rotation_r	knee_angle_r	knee_angle_r_beta	ankle_angle_r	subtalar_angle_r	mtp_angle_r	hip_flexion_l	hip_adduction_l	hip_rotation_l	knee_angle_l	knee_angle_l_beta	ankle_angle_l	subtalar_angle_l	mtp_angle_l	lumbar_extension	lumbar_bending	lumbar_rotation	arm_flex_r	arm_add_r	arm_rot_r	elbow_flex_r	pro_sup_r	arm_flex_l	arm_add_l	arm_rot_l	elbow_flex_l	pro_sup_l
      0.00000000	      6.65757279	      0.77139343	     -5.11520493	      0.23651730	      0.95352469	     -0.02850951	     -1.98953076	      1.37757524	     -6.18735488	     12.68938987	      0.22147163	     11.75931795	      3.54845133	     -6.62256279	     33.18558935	     -4.73318902	      0.72492846	     31.56151746	      0.55085240	      4.17406168	    -11.81977895	     -6.62256279	    -13.99176021	      3.22970116	     -4.83324561	     31.43614034	     -5.82019339	     60.68197653	    126.08887763	     70.63424492	     27.62139749	     -0.59012290	     65.70763160	    125.68151480	     90.52456691
      0.01666670	      7.58953774	     -0.71865031	     -6.34847336	      0.23394672	      0.95480577	     -0.02929629	     -2.64801297	      3.39025609	     -4.79546594	     12.65168405	      0.22081354	      9.81047985	     -0.98242486	     -6.85248257	     32.52407286	     -6.93052253	      0.22426434	     30.18226492	      0.52677990	      6.97223671	     -6.42206015	     -6.85248257	    -17.01740993	      4.88990360	     -0.08976257	     32.81599188	     -9.49081486	     64.06338996	    133.68448271	     83.15301425	     30.53875124	     -0.33738540	     63.55208316	    129.81771910	    105.07286262
      0.03333330	      7.49975769	      0.67304074	     -7.79821133	      0.23539624	      0.95117608	     -0.02621505	     -1.40273173	      2.14107350	     -5.01282694	     14.25009158	      0.24871102	     10.85536390	     -1.53323562	     -6.86559242	     32.37326772	     -6.75554925	     -1.60717423	     29.90812776	      0.52199530	      6.92228564	     -4.80850616	     -6.86559242	    -16.17939891	      2.74302272	      0.41168926	     32.22168859	     -7.16381007	     61.69707431	    133.70966475	     83.62207529	     31.35167304	     -0.32372985	     62.86622300	    130.46492676	    105.58789747
      0.05000000	      6.59174007	      3.05783127	     -8.57555875	      0.24563068	      0.94780015	     -0.01998748	     -0.10615315	     -0.10055378	     -5.25255709	     14.51613858	      0.25335441	     12.45086249	     -0.80821450	     -7.04160082	     32.94174385	     -5.53524021	     -3.31763510	     30.75774619	      0.53682394	      7.71824665	     -3.09507195	     -7.04160082	    -13.43878650	     -0.43547153	      1.74989727	     29.16121464	     -5.91177943	     58.58511991	    133.02064189	     91.92154493	     31.33388836	      0.70425240	     62.24028641	    129.47193816	    107.73854785
      0.06666670	      5.87545066	      4.52931740	     -9.40709554	      0.23777450	      0.94796913	     -0.02322472	      1.20156479	     -1.58092494	     -4.55033117	     15.10208044	      0.26358103	     12.98915776	      0.30814190	     -7.05172867	     34.22133984	     -4.70643402	     -4.71658316	     31.98177288	      0.55818724	      9.16705985	     -0.51559466	     -7.05172867	    -12.05465613	     -1.97745552	      2.26467259	     29.07107593	     -5.16548728	     59.07018373	    131.52481437	     92.14047698	     32.06843530	      1.17289125	     60.70853724	    128.86753118	    107.24645106
      0.08333330	      5.63942412	      5.62211703	     -9.15957465	      0.24538524	      0.95062646	     -0.01906878	      0.86461020	     -2.61879415	     -4.40540892	     14.74625813	      0.25737076	     13.00322569	     -0.03719613	     -7.15488395	     34.60476510	     -3.83227777	     -4.95203924	     33.72554022	      0.58862172	      9.61601574	     -0.12096937	     -7.15488395	    -11.18637952	     -3.14106571	      1.97565157	     28.54149592	     -4.40512100	     58.09203156	    129.37074801	     93.61232129	     31.76707094	      0.92576259	     59.96600865	    128.33867152	    102.73832530
